<svg width="42" height="63" viewBox="0 0 42 63" fill="none" xmlns="http://www.w3.org/2000/svg">
<g clip-path="url(#clip0_7_89)">
<path d="M37.7958 61.174V61.3738H37.9266V61.3227L37.7958 61.174Z" fill="white"/>
<path d="M20.993 0L3.17184 20.2024L0 23.8033V63H42V23.7987L20.993 0ZM20.993 4.92979L31.6296 16.9778L14.6119 41.6964L5.18519 22.8462L20.993 4.92979ZM3.26994 26.5075L12.4444 44.8467L3.26994 58.1678V26.5075ZM6.24091 59.7475L14.1495 48.2617L19.8952 59.7475H6.24091ZM37.9266 61.3738H37.7958V61.174L37.9266 61.3227V61.3738ZM38.7301 59.7475H23.637L16.317 45.1115L33.9092 19.5612L38.7301 25.0207V59.7475Z" fill="white"/>
</g>
<defs>
<clipPath id="clip0_7_89">
<rect width="42" height="63" fill="white"/>
</clipPath>
</defs>
</svg>
